<mxfile host="app.diagrams.net" modified="2021-04-13T06:15:36.355Z" agent="5.0 (Windows NT 10.0; Win64; x64) AppleWebKit/537.36 (KHTML, like Gecko) Chrome/89.0.4389.114 Safari/537.36" etag="QHJZZgMbFosl3dgoybxK" version="14.5.10" type="github">
  <diagram id="4DEWIcSBY9tWpsxBbvUf" name="Page-1">
    <mxGraphModel dx="1278" dy="548" grid="1" gridSize="10" guides="1" tooltips="1" connect="1" arrows="1" fold="1" page="1" pageScale="1" pageWidth="827" pageHeight="1169" math="0" shadow="0">
      <root>
        <mxCell id="0" />
        <mxCell id="1" parent="0" />
        <mxCell id="GMiqxK_xdIrVd9iTB11z-1" value="Farmer registration" style="rounded=1;whiteSpace=wrap;html=1;fontSize=12;glass=0;strokeWidth=1;shadow=0;" vertex="1" parent="1">
          <mxGeometry x="354" y="10" width="120" height="30" as="geometry" />
        </mxCell>
        <mxCell id="GMiqxK_xdIrVd9iTB11z-2" value="&lt;span&gt;Enter email id &amp;amp; password&amp;nbsp;&lt;/span&gt;" style="shape=parallelogram;perimeter=parallelogramPerimeter;whiteSpace=wrap;html=1;fixedSize=1;" vertex="1" parent="1">
          <mxGeometry x="351" y="67" width="126" height="30" as="geometry" />
        </mxCell>
        <mxCell id="GMiqxK_xdIrVd9iTB11z-3" style="edgeStyle=orthogonalEdgeStyle;rounded=0;orthogonalLoop=1;jettySize=auto;html=1;exitX=0.5;exitY=1;exitDx=0;exitDy=0;" edge="1" parent="1" source="GMiqxK_xdIrVd9iTB11z-2" target="GMiqxK_xdIrVd9iTB11z-2">
          <mxGeometry relative="1" as="geometry" />
        </mxCell>
        <mxCell id="GMiqxK_xdIrVd9iTB11z-4" value="" style="edgeStyle=orthogonalEdgeStyle;rounded=0;orthogonalLoop=1;jettySize=auto;html=1;exitX=0.5;exitY=1;exitDx=0;exitDy=0;entryX=0.5;entryY=0;entryDx=0;entryDy=0;" edge="1" parent="1" source="GMiqxK_xdIrVd9iTB11z-7" target="GMiqxK_xdIrVd9iTB11z-5">
          <mxGeometry relative="1" as="geometry" />
        </mxCell>
        <mxCell id="GMiqxK_xdIrVd9iTB11z-5" value="Display home page" style="rounded=0;whiteSpace=wrap;html=1;dashed=1;dashPattern=1 1;" vertex="1" parent="1">
          <mxGeometry x="354" y="222" width="120" height="30" as="geometry" />
        </mxCell>
        <mxCell id="GMiqxK_xdIrVd9iTB11z-6" value="" style="endArrow=classic;html=1;exitX=0.5;exitY=1;exitDx=0;exitDy=0;entryX=0.5;entryY=0;entryDx=0;entryDy=0;" edge="1" parent="1" source="GMiqxK_xdIrVd9iTB11z-2" target="GMiqxK_xdIrVd9iTB11z-7">
          <mxGeometry width="50" height="50" relative="1" as="geometry">
            <mxPoint x="420" y="150" as="sourcePoint" />
            <mxPoint x="440" y="120" as="targetPoint" />
          </mxGeometry>
        </mxCell>
        <mxCell id="GMiqxK_xdIrVd9iTB11z-7" value="is email id is correct" style="rhombus;whiteSpace=wrap;html=1;" vertex="1" parent="1">
          <mxGeometry x="359" y="126" width="110" height="67" as="geometry" />
        </mxCell>
        <mxCell id="GMiqxK_xdIrVd9iTB11z-8" value="" style="endArrow=classic;html=1;entryX=0.5;entryY=1;entryDx=0;entryDy=0;" edge="1" parent="1" target="GMiqxK_xdIrVd9iTB11z-9">
          <mxGeometry width="50" height="50" relative="1" as="geometry">
            <mxPoint x="470" y="160" as="sourcePoint" />
            <mxPoint x="560" y="150" as="targetPoint" />
            <Array as="points">
              <mxPoint x="600" y="160" />
            </Array>
          </mxGeometry>
        </mxCell>
        <mxCell id="GMiqxK_xdIrVd9iTB11z-9" value="login error" style="rounded=0;whiteSpace=wrap;html=1;" vertex="1" parent="1">
          <mxGeometry x="540" y="66" width="120" height="30" as="geometry" />
        </mxCell>
        <mxCell id="GMiqxK_xdIrVd9iTB11z-10" value="" style="endArrow=classic;html=1;exitX=0;exitY=0.5;exitDx=0;exitDy=0;entryX=1;entryY=0.5;entryDx=0;entryDy=0;" edge="1" parent="1" source="GMiqxK_xdIrVd9iTB11z-9" target="GMiqxK_xdIrVd9iTB11z-2">
          <mxGeometry width="50" height="50" relative="1" as="geometry">
            <mxPoint x="420" y="150" as="sourcePoint" />
            <mxPoint x="470" y="100" as="targetPoint" />
          </mxGeometry>
        </mxCell>
        <mxCell id="GMiqxK_xdIrVd9iTB11z-11" value="no&lt;br&gt;" style="text;html=1;align=center;verticalAlign=middle;resizable=0;points=[];autosize=1;strokeColor=none;" vertex="1" parent="1">
          <mxGeometry x="484" y="140" width="30" height="20" as="geometry" />
        </mxCell>
        <mxCell id="GMiqxK_xdIrVd9iTB11z-12" value="" style="endArrow=classic;html=1;exitX=0.5;exitY=1;exitDx=0;exitDy=0;entryX=0.5;entryY=0;entryDx=0;entryDy=0;" edge="1" parent="1" source="GMiqxK_xdIrVd9iTB11z-1" target="GMiqxK_xdIrVd9iTB11z-2">
          <mxGeometry width="50" height="50" relative="1" as="geometry">
            <mxPoint x="420" y="140" as="sourcePoint" />
            <mxPoint x="320" y="60" as="targetPoint" />
          </mxGeometry>
        </mxCell>
        <mxCell id="GMiqxK_xdIrVd9iTB11z-13" value="yes" style="text;html=1;align=center;verticalAlign=middle;resizable=0;points=[];autosize=1;strokeColor=none;" vertex="1" parent="1">
          <mxGeometry x="420" y="192" width="30" height="20" as="geometry" />
        </mxCell>
      </root>
    </mxGraphModel>
  </diagram>
</mxfile>
